<svg width="49" height="48" viewBox="0 0 49 48" fill="none" xmlns="http://www.w3.org/2000/svg">
<path d="M24.5 44C21.7667 44 19.1833 43.475 16.75 42.425C14.3167 41.375 12.1917 39.9417 10.375 38.125C8.55833 36.3083 7.125 34.1833 6.075 31.75C5.025 29.3167 4.5 26.7333 4.5 24C4.5 21.2333 5.025 18.6417 6.075 16.225C7.125 13.8083 8.55833 11.6917 10.375 9.875C12.1917 8.05833 14.3167 6.625 16.75 5.575C19.1833 4.525 21.7667 4 24.5 4C27.2667 4 29.8583 4.525 32.275 5.575C34.6917 6.625 36.8083 8.05833 38.625 9.875C40.4417 11.6917 41.875 13.8083 42.925 16.225C43.975 18.6417 44.5 21.2333 44.5 24C44.5 26.7333 43.975 29.3167 42.925 31.75C41.875 34.1833 40.4417 36.3083 38.625 38.125C36.8083 39.9417 34.6917 41.375 32.275 42.425C29.8583 43.475 27.2667 44 24.5 44ZM34.75 19.35L38.2 18.15L39.1 14.95C37.9667 13.1833 36.5667 11.675 34.9 10.425C33.2333 9.175 31.35 8.21667 29.25 7.55L26 9.7V13.2L34.75 19.35ZM14.3 19.35L23 13.2V9.7L19.8 7.55C17.7 8.21667 15.8167 9.175 14.15 10.425C12.4833 11.675 11.0833 13.1833 9.95 14.95L11.05 18.15L14.3 19.35ZM11.6 35.35L14.6 35L16.55 31.75L13.45 22.2L9.9 21L7.5 22.95C7.5 25.35 7.76667 27.5417 8.3 29.525C8.83333 31.5083 9.93333 33.45 11.6 35.35ZM24.5 41C25.4 41 26.3083 40.9167 27.225 40.75C28.1417 40.5833 29.1 40.3667 30.1 40.1L31.75 36.5L30.15 33.75H18.9L17.3 36.5L18.95 40.1C19.8167 40.3667 20.7333 40.5833 21.7 40.75C22.6667 40.9167 23.6 41 24.5 41ZM19.2 30.75H29.6L32.65 21.6L24.5 15.75L16.2 21.6L19.2 30.75ZM37.45 35.35C39.0833 33.45 40.1667 31.5083 40.7 29.525C41.2333 27.5417 41.5 25.35 41.5 22.95L39.1 21.3L35.6 22.2L32.5 31.75L34.4 35L37.45 35.35Z" fill="#CBD5E1"/>
</svg>
