<svg width="49" height="48" viewBox="0 0 49 48" fill="none" xmlns="http://www.w3.org/2000/svg">
<path d="M24.499 34C24.9663 34 25.3583 33.842 25.675 33.526C25.9917 33.21 26.15 32.8183 26.15 32.351C26.15 31.8837 25.992 31.4917 25.676 31.175C25.36 30.8583 24.9683 30.7 24.501 30.7C24.0337 30.7 23.6417 30.858 23.325 31.174C23.0083 31.49 22.85 31.8817 22.85 32.349C22.85 32.8163 23.008 33.2083 23.324 33.525C23.64 33.8417 24.0317 34 24.499 34ZM23.15 26.35H26.15V13.7H23.15V26.35ZM24.5135 44C21.7555 44 19.1638 43.475 16.7385 42.425C14.3128 41.375 12.1917 39.9417 10.375 38.125C8.55833 36.3083 7.125 34.186 6.075 31.758C5.025 29.33 4.5 26.7357 4.5 23.975C4.5 21.2143 5.025 18.62 6.075 16.192C7.125 13.764 8.55833 11.65 10.375 9.85C12.1917 8.05 14.314 6.625 16.742 5.575C19.17 4.525 21.7643 4 24.525 4C27.2857 4 29.88 4.525 32.308 5.575C34.736 6.625 36.85 8.05 38.65 9.85C40.45 11.65 41.875 13.7667 42.925 16.2C43.975 18.6333 44.5 21.2288 44.5 23.9865C44.5 26.7445 43.975 29.3362 42.925 31.7615C41.875 34.1872 40.45 36.3053 38.65 38.116C36.85 39.9263 34.7333 41.3597 32.3 42.416C29.8667 43.472 27.2712 44 24.5135 44ZM24.525 41C29.2417 41 33.25 39.3417 36.55 36.025C39.85 32.7083 41.5 28.6917 41.5 23.975C41.5 19.2583 39.8532 15.25 36.5595 11.95C33.2658 8.65 29.246 7 24.5 7C19.8 7 15.7917 8.64683 12.475 11.9405C9.15833 15.2342 7.5 19.254 7.5 24C7.5 28.7 9.15833 32.7083 12.475 36.025C15.7917 39.3417 19.8083 41 24.525 41Z" fill="#F45B69"/>
</svg>
